{"title":"Battledogs 2013 DVDRip XViD.TheHowling","uid":8664269,"size":530721376,"categoryP":"video","categoryS":"movies","magnet":"?xt=urn:btih:156490ac28c390265098479c785f08d70d4a0eae&amp;dn=Battledogs+2013+DVDRip+XViD.TheHowling&amp;tr=udp%3A%2F%2Ftracker.openbittorrent.com%3A80&amp;tr=udp%3A%2F%2Fopen.demonii.com%3A1337&amp;tr=udp%3A%2F%2Ftracker.coppersurfer.tk%3A6969&amp;tr=udp%3A%2F%2Fexodus.desync.com%3A6969","seeders":0,"leechers":1,"uploader":"ValidusVyto","files":-1,"time":1373379839,"description":"_______ Visit us at our Semi Public Bittorrent Community ________\n    &lt;a href=&quot;\nhttp://p2pdl.com&quot; rel=&quot;nofollow&quot; target=&quot;_NEW&quot;&gt;\nhttp://p2pdl.com&lt;/a&gt;  _____________________________ &lt;a href=&quot; http://p2pdl.com&quot; rel=&quot;nofollow&quot; target=&quot;_NEW&quot;&gt; http://p2pdl.com&lt;/a&gt;\n\n\nEncoder ..........:ANIMAL-SPEED24\nRuntime...........:1h 28mn\nLanguage..........:ENGLISH\nSubtitles.........:N/A\nIMDB Rating.......:4.6/10\nIMDb URL..........: &lt;a href=&quot;\nhttp://www.imdb.com/title/tt2457138/&quot; rel=&quot;nofollow&quot; target=&quot;_NEW&quot;&gt;\nhttp://www.imdb.com/title/tt2457138/&lt;/a&gt;\nFormat: AVI\nFormat/Info: Audio Video Interleave\nFile size: 502 MiB\nDuration: 1h 28mn\nOverall bit rate: 794 Kbps\n\nVideo:\n\nID: 0\nFormat: AVC\nFormat/Info: Advanced Video Codec\nFormat profile: &lt;a class=&quot;__cf_email__&quot; href=&quot;/cdn-cgi/l/email-protection&quot; data-cfemail=&quot;8bc3e2ece3cbc7b8a5bb&quot;&gt;[email&amp;#160;protected]&lt;/a&gt;&lt;script cf-hash='f9e31' type=&quot;text/javascript&quot;&gt;\n/* &lt;![CDATA[ */!function(){try{var t=&quot;currentScript&quot;in document?document.currentScript:function(){for(var t=document.getElementsByTagName(&quot;script&quot;),e=t.length;e--;)if(t[e].getAttribute(&quot;cf-hash&quot;))return t[e]}();if(t&amp;&amp;t.previousSibling){var e,r,n,i,c=t.previousSibling,a=c.getAttribute(&quot;data-cfemail&quot;);if(a){for(e=&quot;&quot;,r=parseInt(a.substr(0,2),16),n=2;a.length-n;n+=2)i=parseInt(a.substr(n,2),16)^r,e+=String.fromCharCode(i);e=document.createTextNode(e),c.parentNode.replaceChild(e,c)}}}catch(u){}}();/* ]]&gt; */&lt;/script&gt;\nFormat settings, CABAC: Yes\nFormat settings, ReFrames: 4 frames\nCodec ID: H264\nDuration: 1h 28mn\nBit rate: 400 Kbps\nWidth: 640 pixels\nHeight: 352 pixels\nDisplay aspect ratio: 16:9\nFrame rate mode: Variable\nFrame rate: 23.976 fps\nColor space: YUV\nChroma subsampling: 4:2:0\nBit depth: 8 bits\nScan type: Progressive\nBits/(Pixel*Frame): 0.074\nStream size: 253 MiB (50%)\nWriting library: x264 core 120 r2120 0c7dab9\n\nAudio:\n\nID: 1\nFormat: AC-3\nFormat/Info: Audio Coding 3\nMode extension: CM (complete main)\nFormat settings, Endianness: Big\nCodec ID: 2000\nDuration: 1h 28mn\nSource duration: 1h 28mn\nBit rate mode: Constant\nBit rate: 384 Kbps\nChannel(s): 2 channels\nChannel positions: Front: L R\nSampling rate: 48.0 KHz\nBit depth: 16 bits\nCompression mode: Lossy\nStream size: 243 MiB (48%)\nAlignment: Aligned on interleaves\nInterleave, duration: 32 ms (0.77 video frame)\n\nDirector: Alexander Yellen\nWriter: Shane Van Dyke\nActors: Dennis Haysbert, Ernie Hudson, Kate Vernon, Ariana Richards\n\n","torrent":{"xt":"urn:btih:156490ac28c390265098479c785f08d70d4a0eae","amp;dn":"Battledogs+2013+DVDRip+XViD.TheHowling","amp;tr":["udp%3A%2F%2Ftracker.openbittorrent.com%3A80","udp%3A%2F%2Fopen.demonii.com%3A1337","udp%3A%2F%2Ftracker.coppersurfer.tk%3A6969","udp%3A%2F%2Fexodus.desync.com%3A6969"],"infoHash":"156490ac28c390265098479c785f08d70d4a0eae","infoHashBuffer":{"type":"Buffer","data":[21,100,144,172,40,195,144,38,80,152,71,156,120,95,8,215,13,74,14,174]},"announce":[],"urlList":[]}}